# AST/ASF file generated using VICON BodyLanguage
# -----------------------------------------------
:version 1.10
:name VICON
:units
  mass 1.0
  length 0.45
  angle deg
:documentation
   .ast/.asf automatically generated from VICON data using
   VICON BodyBuilder and BodyLanguage model FoxedUp or BRILLIANT.MOD
:root
   order TX TY TZ RX RY RZ
   axis XYZ
   position 0 0 0  
   orientation 0 0 0 
:bonedata
  begin
     id 1 
     name lhipjoint
     direction 0.722297 -0.617336 0.311742 
     length 2.6635 
     axis 0 0 0  XYZ
  end
  begin
     id 2 
     name lfemur
     direction 0.34202 -0.939693 0  
     length 7.39349  
     axis 0 0 20  XYZ
    dof rx ry rz
    limits (-160.0 20.0)
           (-70.0 70.0)
           (-60.0 70.0)
  end
  begin
     id 3 
     name ltibia
     direction 0.34202 -0.939693 0   
     length 7.36294   
     axis 0 0 20   XYZ
    dof rx
    limits (-10.0 170.0)
  end
  begin
     id 4 
     name lfoot
     direction 0.104879 -0.288152 0.951824   
     length 2.16981   
     axis -90 7.62852e-016 20   XYZ
    dof rx rz
    limits (-45.0 90.0)
           (-70.0 20.0)
  end
  begin
     id 5 
     name ltoes
     direction 1.53586e-011 -4.21895e-011 1   
     length 1.08218   
     axis -90 7.62852e-016 20   XYZ
    dof rx
    limits (-90.0 20.0)
  end
  begin
     id 6 
     name rhipjoint
     direction -0.75102 -0.589393 0.297631   
     length 2.78977  
     axis 0 0 0  XYZ 
  end
  begin
     id 7 
     name rfemur
     direction -0.34202 -0.939693 0   
     length 7.46076   
     axis 0 0 -20   XYZ
    dof rx ry rz
    limits (-160.0 20.0)
           (-70.0 70.0)
           (-70.0 60.0)
  end
  begin
     id 8 
     name rtibia
     direction -0.34202 -0.939693 0   
     length 7.31726   
     axis 0 0 -20   XYZ
    dof rx
    limits (-10.0 170.0)
 end
 begin
     id 9 
     name rfoot
     direction -0.107991 -0.296704 0.948844   
     length 2.09388  
     axis -90 -7.62852e-016 -20   XYZ
    dof rx rz
    limits (-45.0 90.0)
           (-20.0 70.0)
  end
  begin
     id 10 
     name rtoes
     direction -1.53559e-011 -4.21911e-011 1   
     length 1.04433   
     axis -90 -7.62852e-016 -20   XYZ
    dof rx
    limits (-90.0 20.0)
  end
  begin
     id 11 
     name lowerback
     direction 0.0165164 0.98272 0.184358   
     length 1.71896   
     axis 0 0 0   XYZ
    dof rx ry rz
    limits (-20.0 45.0)
           (-30.0 30.0)
           (-30.0 30.0)
  end
  begin
     id 12 
     name upperback
     direction -0.00887249 0.992297 0.123566   
     length 1.71504   
     axis 0 0 0   XYZ
    dof rx ry rz
    limits (-20.0 45.0)
           (-30.0 30.0)
           (-30.0 30.0)
  end
  begin
     id 13 
     name thorax
     direction -0.0157026 0.998908 0.0440032   
     length 1.77022   
     axis 0 0 0   XYZ
    dof rx ry rz
    limits (-20.0 45.0)
           (-30.0 30.0)
           (-30.0 30.0)
  end
  begin
     id 14 
     name lowerneck
     direction -0.0238856 0.998137 0.0561411   
     length 1.89341   
     axis 0 0 0   XYZ
    dof rx ry rz
    limits (-20.0 45.0)
           (-30.0 30.0)
           (-30.0 30.0)
  end
  begin
     id 15 
     name upperneck
     direction 0.0276574 0.952253 -0.304056   
     length 1.86999   
     axis 0 0 0   XYZ
    dof rx ry rz
    limits (-20.0 45.0)
           (-30.0 30.0)
           (-30.0 30.0)
  end
  begin
     id 16
     name head
     direction 0.00800083 0.994258 -0.106712  
     length 1.91492  
     axis 0 0 0   XYZ
    dof rx ry rz
    limits (-20.0 45.0)
           (-30.0 30.0)
           (-30.0 30.0)
  end
  begin
     id 17 
     name lclavicle
     direction 0.97203 0.225407 0.06595  
     length 3.34889  
     axis 0 0 0   XYZ
    dof ry rz
    limits (-20.0 10.0)
           (0.0 20.0)
  end
  begin
     id 18 
     name lhumerus
     direction 1 -4.48973e-011 2.20267e-027   
     length 4.85645   
     axis 180 -30 -90   XYZ
    dof rx ry rz
    limits (-60.0 90.0)
           (-90.0 90.0)
           (-90.0 90.0)
  end
  begin
     id 19
     name lradius
     direction 1 -4.4897e-011 4.60472e-027   
     length 2.79874   
     axis 180 -30 -90   XYZ
    dof rx
    limits (-10.0 170.0)
  end
  begin
     id 20
     name lwrist
     direction 1 -4.48952e-011 1.14928e-026   
     length 1.39937   
     axis -6.29373e-015 90 90   XYZ
    dof ry
    limits (-180.0 0.0)
 end
  begin
     id 21 
     name lhand
     direction 1 -4.48967e-011 2.29886e-026   
     length 0.573398   
     axis -1.46689e-014 90 90   XYZ
    dof rx rz
    limits (-90.0 90.0)
           (-45.0 45.0)
  end
  begin
     id 22 
     name lfingers
     direction 1 -4.48955e-011 4.59726e-026   
     length 0.462289   
     axis -2.93383e-014 90 90   XYZ
    dof rx
    limits (0.0 90.0)
  end
  begin
     id 23
     name lthumb
     direction 0.707107 -6.34866e-011 0.707107   
     length 0.663757   
     axis -90 45 5.69224e-014   XYZ
    dof rx rz
    limits (-45.0 45.0)
           (-45.0 45.0)
  end
  begin
     id 24 
     name rclavicle
     direction -0.981571 0.157346 0.108443   
     length 3.35257  
     axis 0 0 0   XYZ 
    dof ry rz
    limits (-10.0 20.0)
           (-20.0 0.0)
  end
  begin
     id 25 
     name rhumerus
     direction -1 -4.48967e-011 8.58308e-029  
     length 4.67018   
     axis 180 30 90   XYZ
    dof rx ry rz
    limits (-90.0 60.0)
           (-90.0 90.0)
           (-90.0 90.0)
  end
  begin
     id 26 
     name rradius
     direction -1 -4.48958e-011 4.52548e-027   
     length 2.65534   
     axis 180 30 90   XYZ
    dof rx
    limits (-10.0 170.0)
  end
  begin
     id 27 
     name rwrist
     direction -1 -4.48977e-011 1.14952e-026   
     length 1.32767   
     axis -6.29373e-015 -90 -90   XYZ
    dof ry
    limits (-180.0 0.0)
  end
  begin
     id 28
     name rhand
     direction -1 -4.48924e-011 2.29804e-026   
     length 0.594069   
     axis -1.46689e-014 -90 -90   XYZ
    dof rx rz
    limits (-90.0 90.0)
           (-45.0 45.0)
  end
  begin
     id 29
     name rfingers
     direction -1 -4.48998e-011 4.59888e-026   
     length 0.478954   
     axis -2.93383e-014 -90 -90   XYZ
    dof rx
    limits (0.0 90.0)
  end
  begin
     id 30
     name rthumb
     direction -0.707107 -6.34933e-011 0.707107   
     length 0.687685   
     axis -90 -45 -5.69224e-014   XYZ
    dof rx rz
    limits (-45.0 45.0)
           (-45.0 45.0)
  end
:hierarchy
  begin
    root lhipjoint rhipjoint lowerback
    lhipjoint lfemur
    lfemur ltibia
    ltibia lfoot
    lfoot ltoes
    rhipjoint rfemur
    rfemur rtibia
    rtibia rfoot
    rfoot rtoes
    lowerback upperback
    upperback thorax
    thorax lowerneck lclavicle rclavicle
    lowerneck upperneck
    upperneck head
    lclavicle lhumerus
    lhumerus lradius
    lradius lwrist
    lwrist lhand lthumb
    lhand lfingers
    rclavicle rhumerus
    rhumerus rradius
    rradius rwrist
    rwrist rhand rthumb
    rhand rfingers
  end

#!OML:ASF E:\pregnant2\Project 1\Capture day 1\Session 1\pregnant2.ASF
:FULLY-SPECIFIED
:DEGREES
433
root -6.61994 17.3202 7.09082 -331.704 0.568279 356.727
lowerback -18.3175 1.65779 7.69386
upperback -14.0663 1.17384 0.961858
thorax -4.95483 0.0460213 -3.12394
lowerneck -10.683 -0.435324 -1.71401
upperneck 46.2206 3.43684 -7.65773
head 20.143 0.0303067 -2.93584
rclavicle -1.93815e-015 -2.54444e-014
rhumerus -38.9936 24.4939 -72.3709
rradius 85.5121
rwrist -40.5287
rhand -23.2159 -46.8449
rfingers 7.12502
rthumb 183.235 103.2
lclavicle -1.93815e-015 -2.54444e-014
lhumerus -43.9058 -25.2453 73.2559
lradius 76.4685
lwrist 61.1584
lhand -18.382 57.9823
lfingers 7.12502
lthumb 187.902 -92.1854
rfemur -42.2971 9.30412 21.0723
rtibia 33.2801
rfoot -16.606 -13.268
rtoes -1.42789
lfemur -51.2844 -0.656822 -18.4361
ltibia 66.9369
lfoot -6.65692 13.8157
ltoes -11.4786
434
root -6.65286 17.311 7.16473 -331.871 0.883171 356.747
lowerback -18.3213 1.65447 7.63499
upperback -14.0818 1.18155 0.933996
thorax -4.9685 0.054141 -3.12006
lowerneck -10.7553 -0.518561 -1.84887
upperneck 46.2301 3.40171 -7.741
head 20.1742 -0.017389 -2.96205
rclavicle -5.46658e-016 5.96354e-015
rhumerus -36.934 23.764 -71.9721
rradius 84.6351
rwrist -40.1196
rhand -22.9345 -46.4272
rfingers 7.12502
rthumb 183.506 103.622
lclavicle -5.46658e-016 5.96354e-015
lhumerus -42.0442 -23.6693 72.0827
lradius 75.9374
lwrist 60.6381
lhand -18.3838 57.7746
lfingers 7.12502
lthumb 187.9 -92.393
rfemur -41.8841 9.09107 21.3974
rtibia 33.507
rfoot -16.9753 -13.3405
rtoes -1.608
lfemur -51.9326 -0.674605 -18.5232
ltibia 66.9851
lfoot -7.0375 13.4577
ltoes -11.9136
435
root -6.68428 17.3009 7.23945 -332.037 1.19556 356.751
lowerback -18.3423 1.65751 7.60867
upperback -14.0919 1.19116 0.901875
thorax -4.96759 0.0610617 -3.13846
lowerneck -10.8362 -0.598904 -1.97545
upperneck 46.2592 3.36869 -7.81965
head 20.2223 -0.062648 -2.98909
rclavicle -1.23743e-014 1.59028e-015
rhumerus -34.9158 23.0323 -71.7138
rradius 83.8076
rwrist -39.6375
rhand -22.6171 -46.0107
rfingers 7.12502
rthumb 183.813 104.044
lclavicle -1.23743e-014 1.59028e-015
lhumerus -40.3069 -22.1311 71.0917
lradius 75.4571
lwrist 59.9191
lhand -18.376 57.5661
lfingers 7.12502
lthumb 187.907 -92.6018
rfemur -41.4707 8.87538 21.7337
rtibia 33.7303
rfoot -17.3449 -13.407
rtoes -1.76669
lfemur -52.5585 -0.706861 -18.585
ltibia 66.9233
lfoot -7.41681 13.14
ltoes -12.2659
436
root -6.71425 17.2901 7.31499 -332.2 1.50604 356.75
lowerback -18.3663 1.66439 7.60154
upperback -14.1056 1.20297 0.863759
thorax -4.96917 0.0670964 -3.17366
lowerneck -10.9187 -0.676333 -2.09097
upperneck 46.3059 3.33753 -7.89584
head 20.2841 -0.105152 -3.0184
rclavicle -6.41081e-015 -1.82882e-014
rhumerus -32.9606 22.313 -71.5979
rradius 83.0267
rwrist -39.0627
rhand -22.2981 -45.6262
rfingers 7.12502
rthumb 184.121 104.434
lclavicle -6.41081e-015 -1.82882e-014
lhumerus -38.7047 -20.6743 70.2824
lradius 75.0426
lwrist 59.0463
lhand -18.3363 57.2914
lfingers 7.12502
lthumb 187.946 -92.8779
rfemur -41.0577 8.65148 22.0717
rtibia 33.9476
rfoot -17.7159 -13.4639
rtoes -1.87725
lfemur -53.1617 -0.758641 -18.6294
ltibia 66.7508
lfoot -7.78086 12.8848
ltoes -12.5329
437
root -6.74289 17.2788 7.39138 -332.358 1.81016 356.748
lowerback -18.4012 1.67485 7.60536
upperback -14.1248 1.21707 0.818639
thorax -4.97142 0.0728711 -3.22206
lowerneck -10.9901 -0.753823 -2.20643
upperneck 46.368 3.30219 -7.96184
head 20.3533 -0.148093 -3.04464
rclavicle -5.86415e-015 -2.38542e-015
rhumerus -31.0673 21.6171 -71.6188
rradius 82.2797
rwrist -38.3459
rhand -21.8119 -45.0046
rfingers 7.12502
rthumb 184.59 105.065
lclavicle -5.86415e-015 -2.38542e-015
lhumerus -37.23 -19.3176 69.6415
lradius 74.6853
lwrist 58.0506
lhand -18.3033 56.9859
lfingers 7.12502
lthumb 187.978 -93.1846
rfemur -40.647 8.42492 22.4011
rtibia 34.1552
rfoot -18.0869 -13.5175
rtoes -1.97338
lfemur -53.7433 -0.832905 -18.6615
ltibia 66.4649
lfoot -8.11235 12.7097
ltoes -12.6812
438
root -6.77008 17.2673 7.46863 -332.512 2.10491 356.754
lowerback -18.4356 1.68723 7.60474
upperback -14.1513 1.23457 0.768054
thorax -4.98163 0.0799472 -3.27339
lowerneck -11.0511 -0.832036 -2.31994
upperneck 46.4435 3.26078 -8.01745
head 20.4283 -0.191735 -3.06821
rclavicle -2.48481e-015 -1.63003e-014
rhumerus -29.239 20.9708 -71.7613
rradius 81.5627
rwrist -37.4837
rhand -21.1565 -44.0864
rfingers 7.12502
rthumb 185.223 105.998
lclavicle -2.48481e-015 -1.63003e-014
lhumerus -35.8716 -18.0782 69.1634
lradius 74.3832
lwrist 56.9711
lhand -18.2865 56.6259
lfingers 7.12502
lthumb 187.994 -93.5452
rfemur -40.2346 8.20517 22.7098
rtibia 34.3523
rfoot -18.4553 -13.5795
rtoes -2.07728
lfemur -54.2977 -0.927697 -18.6892
ltibia 66.0623
lfoot -8.41129 12.6308
ltoes -12.7858
439
root -6.79597 17.256 7.54673 -332.661 2.38834 356.767
lowerback -18.4708 1.70138 7.59453
upperback -14.183 1.25576 0.713577
thorax -4.99682 0.0891067 -3.32304
lowerneck -11.1049 -0.910535 -2.42792
upperneck 46.5283 3.2155 -8.06867
head 20.508 -0.23529 -3.0922
rclavicle -8.39865e-015 -1.98785e-015
rhumerus -27.4742 20.3958 -72.0123
rradius 80.8781
rwrist -36.4496
rhand -20.2886 -42.8561
rfingers 7.12502
rthumb 186.061 107.251
lclavicle -8.39865e-015 -1.98785e-015
lhumerus -34.6185 -16.9718 68.8365
lradius 74.1302
lwrist 55.8476
lhand -18.326 56.2601
lfingers 7.12502
lthumb 187.956 -93.9096
rfemur -39.8193 7.99661 22.995
rtibia 34.533
rfoot -18.8158 -13.6533
rtoes -2.19989
lfemur -54.8227 -1.04278 -18.712
ltibia 65.5399
lfoot -8.67896 12.6576
ltoes -12.9005
